<svg version="1.1"
     baseProfile="full"
     xmlns="http://www.w3.org/2000/svg"
>

    <symbol id="plus" viewBox="0 0 24 24">
        <path fill-rule="evenodd" clip-rule="evenodd" d="M5.13332 10.8556C4.50125 10.8555 3.98887 11.3679 3.98887 12C3.98887 12.6321 4.50126 13.1445 5.13332 13.1445L10.8554 13.1445L10.8554 18.8668C10.8554 19.4989 11.3678 20.0113 11.9999 20.0113C12.632 20.0113 13.1444 19.4989 13.1444 18.8668L13.1443 13.1445L18.8667 13.1445C19.4988 13.1445 20.0112 12.6321 20.0112 12C20.0112 11.3679 19.4988 10.8556 18.8667 10.8556L13.1443 10.8556L13.1443 5.13338C13.1443 4.50132 12.632 3.98893 11.9999 3.98893C11.3678 3.98893 10.8554 4.50131 10.8554 5.13338L10.8554 10.8556L5.13332 10.8556Z"/>
    </symbol>

    <symbol id="cancel" viewBox="0 0 20 20">
        <g clip-path="url(#clip0_45_49716)">
            <path d="M11.1049 10.0008L19.7712 1.33445C20.0763 1.02933 20.0763 0.534647 19.7712 0.22957C19.4661 -0.0755076 18.9714 -0.0755467 18.6663 0.22957L9.99999 8.89588L1.33372 0.22957C1.0286 -0.0755467 0.533915 -0.0755467 0.228837 0.22957C-0.0762401 0.534686 -0.0762792 1.02937 0.228837 1.33445L8.89511 10.0007L0.228837 18.667C-0.0762792 18.9721 -0.0762792 19.4668 0.228837 19.7719C0.381376 19.9244 0.581337 20.0007 0.781297 20.0007C0.981258 20.0007 1.18118 19.9244 1.33376 19.7719L9.99999 11.1056L18.6663 19.7719C18.8188 19.9244 19.0188 20.0007 19.2187 20.0007C19.4187 20.0007 19.6186 19.9244 19.7712 19.7719C20.0763 19.4668 20.0763 18.9721 19.7712 18.667L11.1049 10.0008Z" fill="#F01445"/>
        </g>
        <defs>
            <clipPath id="clip0_45_49716">
                <rect width="20" height="20" fill="white"/>
            </clipPath>
        </defs>
    </symbol>
</svg>
